<svg version="1.1" id="Layer_1" xmlns="http://www.w3.org/2000/svg" xmlns:xlink="http://www.w3.org/1999/xlink" x="0px" y="0px" width="150px" height="71px" viewBox="0 0 150 71" enable-background="new 0 0 150 71" xml:space="preserve" title="Princess Auto - Return to the home page" class="inject-me">
								<g id="Layer_1_1_">
								</g>
								<g id="Logo">
									<g>
										<path fill="#ADB8BF" d="M149.148,22.96h-43.072v-3.983c0-1.495-1.497-2.365-1.497-2.365L76.496,0.401c0,0-1.499-0.903-2.988,0
											c-2.787,1.611-28.085,16.216-28.085,16.216s-1.491,0.864-1.491,2.36v3.983L0.854,22.958c-0.466,0-0.845,0.378-0.845,0.845
											c0,0.467,0.379,0.844,0.845,0.844h58.322c3.445-5.052,9.247-8.368,15.825-8.368c6.571,0,12.37,3.316,15.815,8.368h58.334
											c0.466,0,0.845-0.377,0.845-0.844C149.993,23.338,149.613,22.96,149.148,22.96 M101.307,23.167
											c-0.211,0.101-0.461,0.013-0.562-0.196C95.999,13.167,85.9,6.832,75.018,6.832c-10.893,0-20.999,6.335-25.746,16.139
											c-0.073,0.15-0.224,0.238-0.379,0.238c-0.062,0-0.125-0.013-0.184-0.041c-0.209-0.102-0.297-0.355-0.196-0.564
											C53.4,12.508,63.804,5.987,75.018,5.987c11.205,0,21.602,6.521,26.484,16.616C101.604,22.812,101.518,23.064,101.307,23.167"></path>
										<path fill="#ADB8BF" d="M149.156,46.184H90.812C87.368,51.234,81.568,54.55,75,54.55c-6.578,0-12.379-3.315-15.824-8.366H0.845
											C0.377,46.184,0,46.561,0,47.025c0,0.47,0.377,0.846,0.845,0.846h43.074v3.984c0,1.494,1.499,2.362,1.499,2.362l28.084,16.214
											c0,0,1.497,0.9,2.986-0.004c2.789-1.609,28.082-16.214,28.082-16.214s1.492-0.862,1.492-2.358v-3.984h43.094
											c0.467,0,0.844-0.376,0.844-0.846C150,46.561,149.623,46.184,149.156,46.184 M101.486,48.229
											c-4.889,10.096-15.291,16.615-26.508,16.615c-11.204,0-21.599-6.521-26.483-16.615c-0.103-0.207-0.016-0.461,0.195-0.562
											c0.211-0.104,0.462-0.017,0.564,0.194c4.743,9.804,14.84,16.138,25.722,16.138c10.895,0,21-6.334,25.749-16.14
											c0.102-0.209,0.354-0.297,0.562-0.195C101.499,47.768,101.586,48.02,101.486,48.229"></path>
										<g>
											<path fill="#0067B1" d="M0.118,28.181h5.435c3.039,0,5.56,0.973,5.56,4.443c0,3.433-2.335,4.485-5.415,4.485H3.342v5.703H0.118
												V28.181 M3.342,34.38h2.149c1.136,0,2.274-0.393,2.274-1.757c0-1.509-1.529-1.715-2.771-1.715H3.342V34.38z"></path>
											<path fill="#0067B1" d="M12.069,28.181h5.662c2.997,0,5.518,1.034,5.518,4.443c0,2.048-1.095,3.638-3.161,4.011l3.72,6.182
												h-3.865l-3.059-5.853h-1.592v5.853h-3.223V28.181 M15.293,34.236h1.902c1.178,0,2.708-0.04,2.708-1.633
												c0-1.469-1.323-1.694-2.501-1.694h-2.109V34.236L15.293,34.236z"></path>
											<rect x="24.594" y="28.181" fill="#0067B1" width="3.224" height="14.635"></rect>
											<polygon fill="#0067B1" points="29.229,28.181 33.611,28.181 39.833,38.35 39.874,38.35 39.874,28.181 43.098,28.181
												43.098,42.814 38.882,42.814 32.495,32.397 32.454,32.397 32.454,42.814 29.229,42.814 			"></polygon>
											<path fill="#0067B1" d="M54.404,31.983c-0.642-0.765-1.571-1.199-2.77-1.199c-2.439,0-4.236,1.984-4.236,4.712
												c0,2.729,1.798,4.712,4.133,4.712c1.303,0,2.357-0.579,3.02-1.569l2.686,2.004c-1.219,1.735-3.287,2.543-5.292,2.543
												c-4.567,0-7.894-2.996-7.894-7.688c0-4.692,3.327-7.688,7.894-7.688c1.634,0,3.7,0.558,4.939,2.149L54.404,31.983"></path>
											<polygon fill="#0067B1" points="58.289,28.181 68.23,28.181 68.23,31.157 61.514,31.157 61.514,33.886 67.857,33.886
												67.857,36.861 61.514,36.861 61.514,39.836 68.602,39.836 68.602,42.814 58.289,42.814 			"></polygon>
											<path fill="#0067B1" d="M77.593,31.756c-0.517-0.661-1.55-0.972-2.336-0.972c-0.908,0-2.169,0.414-2.169,1.509
												c0,2.667,6.737,0.95,6.737,6.075c0,3.268-2.624,4.817-5.642,4.817c-1.881,0-3.534-0.56-4.92-1.841l2.295-2.521
												c0.66,0.867,1.735,1.383,2.812,1.383c1.054,0,2.229-0.493,2.229-1.529c0-2.688-6.863-1.24-6.863-6.116
												c0-3.123,2.71-4.756,5.581-4.756c1.655,0,3.245,0.434,4.485,1.53L77.593,31.756"></path>
											<path fill="#0067B1" d="M88.63,31.756c-0.519-0.661-1.55-0.972-2.336-0.972c-0.911,0-2.171,0.414-2.171,1.509
												c0,2.667,6.736,0.95,6.736,6.075c0,3.268-2.623,4.817-5.641,4.817c-1.884,0-3.537-0.56-4.921-1.841l2.293-2.521
												c0.661,0.867,1.735,1.383,2.812,1.383c1.055,0,2.231-0.493,2.231-1.529c0-2.688-6.862-1.24-6.862-6.116
												c0-3.123,2.705-4.756,5.58-4.756c1.655,0,3.244,0.434,4.486,1.53L88.63,31.756"></path>
											<path fill="#0067B1" d="M101.299,28.18h2.665l6.366,14.636h-3.637l-1.26-3.102h-5.686l-1.219,3.102h-3.559L101.299,28.18z
												 M102.539,32.438l-1.775,4.548h3.574L102.539,32.438z"></path>
											<path fill="#0067B1" d="M121.938,37.17c0,3.452-2.109,6.018-6.162,6.018c-4.068,0-6.18-2.564-6.18-6.018v-8.989h3.227v8.868
												c0,1.799,1.24,3.162,2.955,3.162c1.697,0,2.936-1.363,2.936-3.162v-8.868h3.227v8.989"></path>
											<polygon fill="#0067B1" points="127.057,31.032 122.883,31.032 122.883,28.181 134.455,28.181 134.455,31.032 130.281,31.032
												130.281,42.812 127.057,42.812 			"></polygon>
											<path fill="#0067B1" d="M141.863,27.809c4.564,0,7.894,2.997,7.894,7.688c0,4.692-3.327,7.688-7.894,7.688
												c-4.569,0-7.897-2.996-7.897-7.688C133.966,30.806,137.294,27.809,141.863,27.809 M141.863,40.209
												c2.746,0,4.545-1.982,4.545-4.712c0-2.729-1.799-4.712-4.545-4.712c-2.752,0-4.549,1.985-4.549,4.712
												C137.314,38.227,139.111,40.209,141.863,40.209"></path>
										</g>
									</g>
								</g>
								</svg>